<?xml version="1.0" encoding="UTF-8"?>
<svg width="167px" height="146px" viewBox="0 0 167 146" version="1.1" xmlns="http://www.w3.org/2000/svg" xmlns:xlink="http://www.w3.org/1999/xlink">
    <!-- Generator: Sketch 52.6 (67491) - http://www.bohemiancoding.com/sketch -->
    <title>Group</title>
    <desc>Created with Sketch.</desc>
    <g id="Logo-Final-" stroke="none" stroke-width="1" fill="none" fill-rule="evenodd">
        <g id="WeeCare-Heart-Template---Green" transform="translate(-256.000000, -20.000000)">
            <g id="Group" transform="translate(249.000000, -18.000000)">
                <g id="Group-31">
                    <path d="M79.9156859,157.363819 L63.6010603,157.363819 C43.9726957,157.363819 27.2653102,143.075445 24.2201304,123.684729 C23.8735646,121.477887 23.6321387,120.033101 23.5098905,119.42186 C23.2299097,118.021956 23.3751294,109.471537 23.7196555,106.278747 C23.7656382,105.852616 23.9717939,104.332467 24.3637585,101.516995 C27.0896002,81.9373513 43.8325845,67.3638186 63.6010603,67.3638186 L67.4061491,67.3638186 L67.4061491,62.4998598 C67.4061491,43.0102675 81.726712,26.4817054 101.017646,23.7060225 C104.243477,23.2418794 106.317545,22.8985802 107.036437,22.7221592 C108.54445,22.3520819 115.321406,22.2764081 118.491221,22.618455 C118.917351,22.6644376 120.437501,22.8705933 123.252973,23.2625579 C142.832616,25.9883997 157.406149,42.7313839 157.406149,62.4998598 L157.406149,142.99986 C157.406149,151.007989 150.914278,157.49986 142.906149,157.49986 L81.9061491,157.49986 C81.2370082,157.49986 80.5723213,157.454231 79.9156859,157.363819 Z" id="Combined-Shape" stroke="#FFFFFF" stroke-width="9" fill="#FFFFFF" transform="translate(90.381843, 89.949002) rotate(-315.000000) translate(-90.381843, -89.949002) "></path>
                    <g id="Group-28">
                        <g id="Group-19" transform="translate(90.353553, 89.853553) rotate(-315.000000) translate(-90.353553, -89.853553) translate(26.853553, 26.353553)">
                            <path d="M75.7971854,1.63326519 C78.6938409,1.27283689 80.495711,1.09262274 81.2027958,1.09262274 C81.8904172,1.09262274 87.9434847,0.75176381 91.1022907,1.09262274 C91.4569931,1.13089779 92.9983383,1.33992793 95.7263264,1.71971317 L95.7263262,1.71971457 C113.081893,4.13592308 126,18.9770503 126,36.5 L126,57 C126,62.5228475 121.522847,67 116,67 L55,67 C49.4771525,67 45,62.5228475 45,57 L45,36.5 C45,18.7727619 58.2056048,3.82215938 75.7971841,1.63325452 Z" id="Rectangle-7" fill="#1AA3B3" style="mix-blend-mode: multiply;"></path>
                            <path d="M23.9313012,53.4952986 C26.8279566,53.1348703 28.6298267,52.9546562 29.3369115,52.9546562 C30.024533,52.9546562 36.0776004,52.6137972 39.2364065,52.9546562 C39.5911088,52.9929312 41.132454,53.2019613 43.8604422,53.5817466 L43.860442,53.581748 C61.2160089,55.9979565 74.1341157,70.8390837 74.1341157,88.3620334 L74.1341157,108.862033 C74.1341157,114.384881 69.6569632,118.862033 64.1341157,118.862033 L3.13411574,118.862033 C-2.38873176,118.862033 -6.86588426,114.384881 -6.86588426,108.862033 L-6.86588426,88.3620334 C-6.86588426,70.6347954 6.33972049,55.6841928 23.9312999,53.4952879 Z" id="Rectangle-7" fill="#9093F9" style="mix-blend-mode: multiply;" transform="translate(33.634116, 85.832598) rotate(-90.000000) translate(-33.634116, -85.832598) "></path>
                            <path d="M55,45 L116,45 C121.522847,45 126,49.4771525 126,55 L126,116.43 C126,121.952848 121.522847,126.43 116,126.43 L55,126.43 C49.4771525,126.43 45,121.952848 45,116.43 L45,55 C45,49.4771525 49.4771525,45 55,45 Z" id="Rectangle-7" fill="#BD10E0" style="mix-blend-mode: multiply;"></path>
                            <g id="Group-2" transform="translate(45.000000, 25.000000)" fill="#13099D">
                                <rect id="Rectangle-14" transform="translate(42.946699, 18.532486) rotate(-315.000000) translate(-42.946699, -18.532486) " x="24.1936508" y="11.5324856" width="37.5060967" height="14" rx="7"></rect>
                                <rect id="Rectangle-14" transform="translate(40.533340, 31.041732) rotate(-360.000000) translate(-40.533340, -31.041732) " x="0.0333398949" y="20.0417317" width="81" height="22" rx="11"></rect>
                            </g>
                        </g>
                        <g id="Group-24" transform="translate(77.000000, 121.000000)" fill="#FFFFFF">
                            <rect id="Rectangle-10" x="0" y="0" width="11" height="11" rx="1"></rect>
                            <path d="M16,0 L25,0 C25.5522847,-1.01453063e-16 26,0.44771525 26,1 L26,10 C26,10.5522847 25.5522847,11 25,11 L16,11 C15.4477153,11 15,10.5522847 15,10 L15,1 C15,0.44771525 15.4477153,1.01453063e-16 16,0 Z" id="Rectangle-10"></path>
                            <path d="M1,15 L10,15 C10.5522847,15 11,15.4477153 11,16 L11,25 C11,25.5522847 10.5522847,26 10,26 L1,26 C0.44771525,26 6.76353751e-17,25.5522847 0,25 L0,16 C-6.76353751e-17,15.4477153 0.44771525,15 1,15 Z" id="Rectangle-10"></path>
                            <path d="M16,15 L25,15 C25.5522847,15 26,15.4477153 26,16 L26,25 C26,25.5522847 25.5522847,26 25,26 L16,26 C15.4477153,26 15,25.5522847 15,25 L15,16 C15,15.4477153 15.4477153,15 16,15 Z" id="Rectangle-10"></path>
                        </g>
                    </g>
                </g>
            </g>
        </g>
    </g>
</svg>